<svg width="281" height="290" version="1.1" xmlns="http://www.w3.org/2000/svg" desc="Created with imagetracer.js version 1.2.6" ><path fill="rgb(0,0,0)" stroke="rgb(0,0,0)" stroke-width="1" opacity="0" d="M 0 0 L 281 0 L 281 290 L 0 290 L 0 0 Z M 164 7 L 84 127 L 85 128 L 129 128 L 130 217 L 210 99 L 210 96 L 166 96 L 166 8 L 164 7 Z M 10 252 L 7 253 Q 1 255 3 263 L 7 266 L 19 269 L 20 275 L 14 279 L 7 277 L 4 274 Q 5 271 2 272 L 4 278 L 8 280 Q 15 282 19 279 Q 23 277 22 271 L 18 266 L 10 265 L 5 263 L 6 255 L 9 254 Q 17 253 19 258 Q 18 261 21 260 L 20 256 Q 17 251 10 252 Z M 39 252 L 37 254 L 37 271 Q 38 277 43 280 Q 50 282 54 279 L 57 276 L 58 272 L 58 254 L 57 252 L 56 272 L 55 275 L 49 279 L 44 278 L 40 275 L 39 271 L 39 252 Z M 76 252 L 74 254 L 74 280 L 76 280 L 76 269 L 85 269 L 92 280 L 93 280 L 87 268 L 93 264 L 92 256 Q 87 250 76 252 Z M 119 252 L 114 254 L 108 262 Q 107 272 111 277 L 116 280 Q 128 282 131 275 L 131 280 L 132 280 L 132 266 L 121 266 L 122 268 L 130 268 L 129 275 L 122 279 L 115 277 L 110 271 L 111 260 L 118 254 L 126 255 L 129 260 L 132 261 L 131 258 Q 128 251 119 252 Z M 149 252 L 149 280 L 151 280 L 151 253 L 149 252 Z M 167 252 L 167 280 L 184 280 L 184 275 L 173 275 L 173 254 Q 172 251 167 252 Z M 199 252 L 197 254 L 197 280 L 198 280 L 203 280 L 203 253 Q 203 251 199 252 Z M 218 252 L 218 280 L 219 280 L 224 280 L 225 264 L 236 280 Q 241 281 241 280 L 241 254 Q 240 251 235 252 L 235 269 L 224 254 Q 223 251 218 252 Z M 256 252 L 256 280 L 257 280 L 262 280 L 263 271 L 266 269 L 274 280 L 280 280 L 270 265 L 279 254 Q 280 251 274 252 L 263 264 L 262 254 Q 261 251 256 252 Z " /><path fill="rgb(0,0,0)" stroke="rgb(0,0,0)" stroke-width="1" opacity="0" d="M 153.5 45 L 154 97 L 132 107.5 L 189 108.5 L 140.5 180 L 140 128.5 L 162 116.5 L 106 116 L 153.5 45 Z " /><path fill="rgb(0,0,0)" stroke="rgb(0,0,0)" stroke-width="1" opacity="0" d="M 77.5 254 Q 88 252 91 257.5 Q 92 264 88.5 266 Q 85 268.5 77.5 267 L 76 265.5 L 76 255.5 L 77.5 254 Z " /><path fill="rgb(24,24,24)" stroke="rgb(24,24,24)" stroke-width="1" opacity="0.9568627450980393" d="M 164 7 L 166 7.5 L 166 96 L 209.5 96 L 210 98.5 L 129.5 217 L 129 128 L 84.5 128 L 84 126.5 L 164 7 Z M 154 45 L 106 116 L 162 117 L 140 129 L 141 180 L 189 109 L 132 108 L 154 97 L 154 45 Z " /><path fill="rgb(24,24,24)" stroke="rgb(24,24,24)" stroke-width="1" opacity="0.9568627450980393" d="M 9.5 252 Q 17.5 251 20 255.5 L 21 260 Q 18 261.3 19 257.5 Q 16.8 252.7 8.5 254 L 6 255 L 5 263 L 9.5 265 L 17.5 266 L 22 270.5 Q 22.9 277.4 18.5 279 Q 15 281.5 7.5 280 L 4 277.5 L 2 272 Q 4.7 270.9 4 273.5 L 6.5 277 L 13.5 279 L 20 274.5 L 19 269 L 6.5 266 L 3 262.5 Q 1.5 254.5 6.5 253 L 9.5 252 Z " /><path fill="rgb(24,24,24)" stroke="rgb(24,24,24)" stroke-width="1" opacity="0.9568627450980393" d="M 38.5 252 L 39 270.5 L 40 274.5 L 43.5 278 L 48.5 279 L 55 274.5 L 56 271.5 L 56.5 252 L 58 253.5 L 58 271.5 L 57 275.5 L 53.5 279 Q 50 281.5 42.5 280 Q 37.9 277.1 37 270.5 L 37 253.5 L 38.5 252 Z " /><path fill="rgb(24,24,24)" stroke="rgb(24,24,24)" stroke-width="1" opacity="0.9568627450980393" d="M 75.5 252 Q 87.3 250.3 92 255.5 L 93 263.5 L 87 268 L 93 279.5 L 91.5 280 L 84.5 269 L 76 269 L 76 279.5 L 74 280 L 74 253.5 L 75.5 252 Z M 78 254 L 76 256 L 76 266 L 78 267 Q 85 269 89 266 Q 92 264 91 258 Q 88 252 78 254 Z " /><path fill="rgb(24,24,24)" stroke="rgb(24,24,24)" stroke-width="1" opacity="0.9568627450980393" d="M 118.5 252 Q 128.3 251.3 131 257.5 L 132 261 L 129 259.5 L 125.5 255 L 117.5 254 L 111 259.5 L 110 270.5 L 114.5 277 L 121.5 279 L 129 274.5 L 130 268 L 121.5 268 L 121 266 L 132 266 L 132 279.5 L 131 279.5 L 130.5 275 Q 127.5 282 115.5 280 L 111 276.5 Q 106.5 272 108 261.5 L 113.5 254 L 118.5 252 Z " /><path fill="rgb(24,24,24)" stroke="rgb(24,24,24)" stroke-width="1" opacity="0.9568627450980393" d="M 149 252 L 151 252.5 L 151 280 L 149 279.5 L 149 252 Z " /><path fill="rgb(24,24,24)" stroke="rgb(24,24,24)" stroke-width="1" opacity="0.9568627450980393" d="M 167 252 Q 171.6 250.8 173 253.5 L 173 275 L 184 275 L 184 280 L 167 280 L 167 252 Z " /><path fill="rgb(24,24,24)" stroke="rgb(24,24,24)" stroke-width="1" opacity="0.9568627450980393" d="M 198.5 252 Q 203 251.5 203 252.5 L 203 280 L 197.5 280 L 197 279.5 L 197 253.5 L 198.5 252 Z " /><path fill="rgb(24,24,24)" stroke="rgb(24,24,24)" stroke-width="1" opacity="0.9568627450980393" d="M 218 252 Q 222.6 250.8 224 253.5 L 234.5 269 L 235 252 Q 239.6 250.8 241 253.5 L 241 279.5 Q 240.9 280.6 235.5 280 L 224.5 264 L 224 280 L 218.5 280 L 218 279.5 L 218 252 Z " /><path fill="rgb(24,24,24)" stroke="rgb(24,24,24)" stroke-width="1" opacity="0.9568627450980393" d="M 256 252 Q 260.6 250.8 262 253.5 L 262.5 264 L 273.5 252 Q 279.6 250.8 279 253.5 L 270 264.5 L 280 279.5 L 273.5 280 L 265.5 269 L 263 270.5 L 262 280 L 256.5 280 L 256 279.5 L 256 252 Z " /></svg>